<svg xmlns="http://www.w3.org/2000/svg" xmlns:xlink="http://www.w3.org/1999/xlink" viewBox="0 0 276.36 265.41"><defs><style>.a{fill:url(#a);}</style><radialGradient id="a" cx="133.86" cy="145.3" fx="262.93090614150844" fy="45.82089500660736" r="163.65" gradientTransform="matrix(0.92, -0.4, 0.44, 1.01, -52.85, 51.2)" gradientUnits="userSpaceOnUse"><stop offset="0.31" stop-color="#9d5ddd"/><stop offset="0.33" stop-color="#9656d6"/><stop offset="0.39" stop-color="#803fc0"/><stop offset="0.47" stop-color="#6f2eaf"/><stop offset="0.57" stop-color="#6321a3"/><stop offset="0.69" stop-color="#5c1a9c"/><stop offset="1" stop-color="#5a189a"/></radialGradient></defs><path class="a" d="M242.31,123.62c24.68-8.6,35.45-16.54,33.9-25-.87-4.77-6.52-11-45.29-9.85-18.75.54-41.62,2.78-66.28,6.41L175,29.33c1.3-8.47-.23-15.51-4.55-20.91-3.07-3.84-9-8.42-19.9-8.42-15.3,0-25.36,8.62-27.58,23.56L110,105c-27,5.71-51.62,12.27-71,19C2.32,136.64-.76,144.45.12,149.22c.8,4.39,5.64,10,36.54,10,2.71,0,5.62-.05,8.75-.14,4.08-.12,8.38-.32,12.83-.6A9.91,9.91,0,0,0,76.54,157c8.17-.8,16.74-1.8,25.59-3l-13,81.74c-1.3,8.75.33,15.94,4.84,21.34s11.41,8.3,20.31,8.3H238.79c7.77,0,14.24-2.36,19.23-7,5.15-4.8,7.76-11.53,7.76-20,0-13.18-9.44-21.06-25.24-21.06H145.46l11.37-72.45C193.35,137.82,222.07,130.68,242.31,123.62ZM231.1,94.77q4.38-.12,8.17-.12c24.34,0,30.78,3.64,31,5.07.23,1.22-.16,7.85-30,18.24-19.58,6.82-47.3,13.75-82.52,20.63l5.84-37.19C188.8,97.64,212.1,95.33,231.1,94.77ZM139.74,26.15c1-6.76,3.83-9.15,10.78-9.15,3.31,0,5.54.69,6.62,2,1.23,1.54,1.58,4.13,1,7.68L140.09,141.93q-9.79,1.78-19.34,3.3ZM76.52,151a9.9,9.9,0,0,0-19.22,1.54c-4.18.25-8.22.44-12.06.55C14.13,154,6.31,149.71,6,148.14s5.5-8.34,34.91-18.52c18.58-6.44,42.14-12.74,68-18.28l-5.83,36.5C93.91,149.1,85,150.16,76.52,151Zm164,83.36c8.24,0,8.24,2.16,8.24,4.06,0,5.37-1.77,7-2.35,7.56-1.76,1.64-4.26,2.44-7.64,2.44H114.24c-3.61,0-6-.74-7.26-2.18-1.58-1.91-1.46-5.38-1.09-7.87l13.86-86.9c6.36-1,12.83-2.09,19.36-3.26l-13.53,86.15Z"/></svg>