<svg enable-background="new 0 0 512 512" height="512" viewBox="0 0 512 512" width="512" xmlns="http://www.w3.org/2000/svg" xmlns:xlink="http://www.w3.org/1999/xlink"><linearGradient id="SVGID_1_" gradientUnits="userSpaceOnUse" x1="256" x2="256" y1="451" y2="61"><stop offset="0" stop-color="#fd3a84"/><stop offset="1" stop-color="#ffa68d"/></linearGradient><g><g><path d="m256 301c24.813 0 45-20.187 45-45s-20.187-45-45-45-45 20.187-45 45 20.187 45 45 45zm0-60c8.271 0 15 6.729 15 15s-6.729 15-15 15-15-6.729-15-15 6.729-15 15-15zm230.478 94.31c-.219.214-22.41 21.707-65.44 42.895-39.651 19.523-105.674 42.795-195.038 42.795-60.507 0-111.507-11.414-147.486-33.008-31.285-18.777-48.514-44.344-48.514-71.992 0-34.651 22.626-67.794 63.711-93.326 13.876-8.623 29.239-15.995 45.727-22.042-11.821 15.786-18.438 34.604-18.438 55.368 0 60.841 56.776 105 135 105 66.929 0 130.188-16.405 178.123-46.193 50.22-31.208 77.877-73.401 77.877-118.807 0-38.6-22.4-73.302-63.075-97.714-40.642-24.393-96.98-37.286-162.925-37.286-80.196 0-151.943 25.215-198.009 46.368-49.857 22.894-80.656 45.639-81.943 46.596-6.644 4.941-8.022 14.328-3.086 20.976 4.937 6.648 14.332 8.035 20.981 3.103.295-.219 30.071-22.143 77.278-43.737 43.188-19.756 110.303-43.306 184.779-43.306 60.508 0 111.508 11.414 147.486 33.008 31.285 18.777 48.514 44.344 48.514 71.992 0 34.651-22.627 67.794-63.711 93.326-13.876 8.623-29.239 15.995-45.727 22.042 11.821-15.786 18.438-34.604 18.438-55.368 0-60.841-56.775-105-135-105-66.929 0-130.187 16.405-178.123 46.193-50.22 31.208-77.877 73.401-77.877 118.807 0 38.6 22.4 73.302 63.075 97.714 40.642 24.393 96.98 37.286 162.925 37.286 95.895 0 166.953-25.324 209.679-46.569 46.868-23.305 70.87-46.778 71.869-47.766 5.88-5.815 5.931-15.28.13-21.174-5.802-5.894-15.292-5.97-21.2-.181zm-230.478-154.31c60.841 0 105 31.542 105 75s-44.159 75-105 75-105-31.542-105-75 44.159-75 105-75z" fill="url(#SVGID_1_)"/></g></g></svg>